<svg width="261" height="580" viewBox="0 0 261 580" fill="none" xmlns="http://www.w3.org/2000/svg">
<path fill-rule="evenodd" clip-rule="evenodd" d="M254.183 0.5H151.925H7.1418L3.89554 3.09701L0.649261 5.3694V7.31716H0V52.1157V53.7388L0.649261 55.3619L2.2724 56.9851L3.89554 58.6082L5.84329 59.9067H100.959V154.698V263.772L65.8993 321.231L113.619 447.186H114.918L115.892 397.843V322.488C113.258 319.334 111.673 315.274 111.673 310.844C111.673 308.613 112.075 306.477 112.81 304.502L112.97 303.701L113.474 302.946C116.413 296.862 122.643 292.664 129.852 292.664C139.892 292.664 148.032 300.804 148.032 310.844C148.032 315.629 146.183 319.982 143.16 323.228V412.127V447.186H144.459L153.873 419.593L177.571 358.888L192.179 321.231L159.716 263.772L160.366 154.698V59.9067H254.183L258.078 56.9851L260.026 54.0634L261 51.791V7.64179L260.026 6.34328L259.377 5.3694L258.078 3.74627L256.455 2.12313L255.806 1.14925L254.183 0.5Z" fill="url(#paint0_linear_708_262)"/>
<path d="M65.3555 570.187V546.397H56.8594V541.554H79.6133V546.397H71.1367V570.187H65.3555ZM94.0078 570.187V567.081C93.2526 568.188 92.2565 569.06 91.0195 569.698C89.7956 570.336 88.5 570.655 87.1328 570.655C85.7396 570.655 84.4896 570.349 83.3828 569.737C82.276 569.125 81.4753 568.266 80.9805 567.159C80.4857 566.052 80.2383 564.522 80.2383 562.569V549.444H85.7266V558.976C85.7266 561.892 85.8242 563.683 86.0195 564.347C86.2279 564.998 86.599 565.519 87.1328 565.909C87.6667 566.287 88.3438 566.476 89.1641 566.476C90.1016 566.476 90.9414 566.222 91.6836 565.714C92.4258 565.193 92.9336 564.555 93.207 563.8C93.4805 563.032 93.6172 561.163 93.6172 558.194V549.444H99.1055V570.187H94.0078ZM114.32 549.444V553.819H110.57V562.179C110.57 563.871 110.603 564.861 110.668 565.147C110.746 565.421 110.909 565.649 111.156 565.831C111.417 566.013 111.729 566.104 112.094 566.104C112.602 566.104 113.337 565.929 114.301 565.577L114.77 569.835C113.493 570.382 112.048 570.655 110.434 570.655C109.444 570.655 108.552 570.493 107.758 570.167C106.964 569.828 106.378 569.399 106 568.878C105.635 568.344 105.382 567.628 105.238 566.729C105.121 566.091 105.062 564.802 105.062 562.862V553.819H102.543V549.444H105.062V545.323L110.57 542.12V549.444H114.32ZM116.859 559.522C116.859 557.7 117.309 555.935 118.207 554.229C119.105 552.524 120.375 551.222 122.016 550.323C123.669 549.425 125.512 548.976 127.543 548.976C130.681 548.976 133.253 549.998 135.258 552.042C137.263 554.073 138.266 556.645 138.266 559.757C138.266 562.895 137.25 565.499 135.219 567.569C133.201 569.627 130.655 570.655 127.582 570.655C125.681 570.655 123.865 570.226 122.133 569.366C120.414 568.507 119.105 567.25 118.207 565.597C117.309 563.93 116.859 561.905 116.859 559.522ZM122.484 559.815C122.484 561.873 122.973 563.448 123.949 564.542C124.926 565.636 126.13 566.183 127.562 566.183C128.995 566.183 130.193 565.636 131.156 564.542C132.133 563.448 132.621 561.86 132.621 559.776C132.621 557.745 132.133 556.183 131.156 555.089C130.193 553.995 128.995 553.448 127.562 553.448C126.13 553.448 124.926 553.995 123.949 555.089C122.973 556.183 122.484 557.758 122.484 559.815ZM147.836 570.187H142.348V549.444H147.445V552.394C148.318 551 149.099 550.082 149.789 549.64C150.492 549.197 151.286 548.976 152.172 548.976C153.422 548.976 154.626 549.321 155.785 550.011L154.086 554.796C153.161 554.197 152.302 553.897 151.508 553.897C150.74 553.897 150.089 554.112 149.555 554.542C149.021 554.959 148.598 555.72 148.285 556.827C147.986 557.934 147.836 560.252 147.836 563.78V570.187ZM193.676 570.187H187.387L184.887 563.683H173.441L171.078 570.187H164.945L176.098 541.554H182.211L193.676 570.187ZM183.031 558.858L179.086 548.233L175.219 558.858H183.031ZM196.586 570.187V541.554H202.367V570.187H196.586Z" fill="black"/>
<defs>
<linearGradient id="paint0_linear_708_262" x1="130.5" y1="0.5" x2="130.5" y2="446.947" gradientUnits="userSpaceOnUse">
<stop stop-color="#6856F6"/>
<stop offset="0.828125" stop-color="#DDD0ED"/>
</linearGradient>
</defs>
</svg>
